<?xml version="1.0" encoding="UTF-8"?>
<svg id="logo-limbo" xmlns="http://www.w3.org/2000/svg" viewBox="0 0 1734.89 586.54">
  <path d="m154.72,495.82h-71.92c-22.26-1.4-43.42-3.72-61.17-18.73C6.35,463.78-.31,443.79.01,423.9V10.18h106.96v376.83c0,9.71,2.43,15.84,7.28,18.38,4.86,2.54,9.42,3.82,13.76,3.82h26.71v86.61Z" fill="currentColor"/>
  <path d="m257.76,110.19c-16.59,0-30.82-4.89-42.67-14.68-11.88-9.77-17.81-23.15-17.81-40.12s5.93-30.41,17.81-40.35c11.85-10,26.07-15.03,42.67-15.03s30.79,5.03,42.67,15.03c11.85,9.94,17.81,23.41,17.81,40.35s-5.95,30.35-17.81,40.12c-11.88,9.8-26.1,14.68-42.67,14.68Zm53.42,385.62h-106.84V134.94h106.84v360.88Z" fill="currentColor"/>
  <path d="m488.09,512.63c-36.2-11.61-68.95-16.81-106.84-16.81V134.94c38.26,0,70.43,4.55,106.84,17.01v38.85c9-11.23,26.92-19.57,41.4-18.47,18.07.24,35.08,6.57,50.88,13.49,37.05,16.22,78.44,43.97,91.69,85.86,9.62-13.57,24.9-26.43,39.43-34.4,18.25-10.39,39.85-13.78,60.47-13.76,32.83.04,68.1,8.85,89.38,35.96,21.88,26.76,26.94,61.24,28.33,94.58v232.48h-106.84v-223c0-19.95-3.93-33.94-11.79-41.97-7.86-8.09-19.25-12.14-34.11-12.14s-26.48,4.41-33.65,12.59c-5.55,6.2-9.31,14.01-11.22,23.81-1.85,9.75-2.78,21.83-2.78,36.23v202.84c-37.57-6.56-71.83-18.8-106.96-33.36v-224.77c.19-16.41-2.72-33.55-11.79-47.51-7.86-11.82-19.63-21.57-35.27-28.85-14.89-6.93-25.96-7.22-33.19-1.25-4.63,3.59-8.15,9.65-10.52,18.13-2.31,8.45-3.47,20.74-3.47,36.84v208.51Z" fill="currentColor"/>
  <path d="m1156.27,551.26c-16.19,6.36-33.22,12.49-51.22,12.75-14.46.88-32.14-7.84-41.05-18.99v33.73c-35.98,7.94-70.23,7.78-106.84,7.78V99.19c36.6,0,70.86.12,106.84-7.69v171.09c10.75-19.05,24.2-36.88,41.05-50.96,15.64-12.93,33.12-24.47,51.22-32.61,24.49-11.01,54.14-21.63,81.75-12.2,24.76,8.39,44.43,28.48,55.39,51.99,14.83,30.68,19.47,63.25,20.12,96.29.65,33.09-5.87,68.39-20.12,99.12-13.28,29.73-32.37,57.77-55.39,80.84-23.03,23.66-51.49,44.32-81.75,56.2Zm-29.83-73.24c23.76-11.4,44.46-30.83,57.24-54.15,13.57-24.13,22.81-52.74,21.62-79.94-.94-21.54-3.18-44.69-21.62-59.86-16.81-12.93-39.75-8.16-57.24-.19-22.41,10.21-42.94,27.78-57,48.53-15.25,21.87-22.7,50-21.97,75.33.66,23.02,3.73,47.59,21.97,65.27,15.77,14.88,38.55,13.86,57,5.01Z" fill="currentColor"/>
  <path d="m1545.1,503.45c-33.24.63-69.28-6.69-98.98-23.47-27.71-15.17-51.86-38.53-66.83-66.49-17.3-31.29-22.93-65.49-23.82-100.37-.84-33.06,7.24-67.92,23.82-97.01,15.14-27.4,39.18-50.2,66.49-65.21,29.73-16.99,65.73-23.38,99.33-23.59,33.8-.21,69.38,7.07,99.33,23.59,27.66,14.65,51.04,38.12,66.49,65.21,17.11,28.85,24.55,64.35,23.94,97.01-.64,34.13-6.08,69.38-23.59,100.02-15.2,27.53-38.48,51.51-66.26,66.49-31.09,17.36-65.41,23.17-99.9,23.82Zm0-91.69c22.03.03,43.6-9.06,57.24-26.94,15.08-20.32,21.04-47.18,21.04-71.69,0-23.55-6.31-49.08-21.04-68.34-13.76-17.66-35.33-26.5-57.24-26.48-21.92.02-43.37,8.93-57.58,26.13-16.33,18.53-21.96,44.89-21.97,68.68-.01,24.68,5.22,52.45,21.97,71.92,14.07,17.46,35.53,26.68,57.58,26.71Z" fill="currentColor"/>
</svg>
